<?xml version="1.0"?>
<svg xmlns="http://www.w3.org/2000/svg" height="512px" viewBox="0 0 512 512" width="512px"><g><path d="m437.019531 74.980469c-48.351562-48.351563-112.640625-74.980469-181.019531-74.980469s-132.667969 26.628906-181.019531 74.980469c-48.351563 48.351562-74.980469 112.640625-74.980469 181.019531s26.628906 132.667969 74.980469 181.019531c48.351562 48.351563 112.640625 74.980469 181.019531 74.980469s132.667969-26.628906 181.019531-74.980469c48.351563-48.351562 74.980469-112.640625 74.980469-181.019531s-26.628906-132.667969-74.980469-181.019531zm-181.019531-34.980469c119.101562 0 216 96.898438 216 216 0 27.492188-5.171875 53.792969-14.578125 78h-54.421875v-188.554688l-147 148.160157-147-148.160157v188.554688h-54.421875c-9.40625-24.207031-14.578125-50.507812-14.578125-78 0-119.101562 96.898438-216 216-216zm0 432c-75.589844 0-142.222656-39.035156-180.828125-98h73.828125v-131.445312l107 107.839843 107-107.839843v131.445312h73.828125c-38.605469 58.964844-105.238281 98-180.828125 98zm0 0" data-original="#000000" class="active-path" data-old_color="#000000" fill="#3B88FF"/></g> </svg>
